<?xml version="1.0" standalone="no"?>
<!DOCTYPE svg PUBLIC "-//W3C//DTD SVG 20010904//EN"
 "http://www.w3.org/TR/2001/REC-SVG-20010904/DTD/svg10.dtd">
<svg version="1.0" xmlns="http://www.w3.org/2000/svg"
 width="381.000000pt" height="381.000000pt" viewBox="0 0 381.000000 381.000000"
 preserveAspectRatio="xMidYMid meet">
<metadata>
Created by potrace 1.11, written by Peter Selinger 2001-2013
</metadata>
<g transform="translate(0.000000,381.000000) scale(0.100000,-0.100000)"
fill="#000000" stroke="none">
<path d="M270 1905 l0 -1905 615 0 615 0 0 405 0 405 73 1 c108 0 592 0 670 0
l67 -1 0 -405 0 -405 615 0 615 0 0 1640 0 1640 -1021 0 -1020 0 1 78 c1 42 1
161 1 265 l-1 187 -615 0 -615 0 0 -1905z m2040 160 l0 -405 -42 -1 c-24 0
-206 -1 -405 -2 l-363 -2 0 408 0 407 405 0 405 0 0 -405z"/>
</g>
</svg>
